<svg xmlns="http://www.w3.org/2000/svg" viewBox="0 0 520 150" role="img" aria-labelledby="title desc">
  <title id="title">Smile Dental Care horizontal logo</title>
  <desc id="desc">Smile Dental Care wordmark with modern tooth and smile icon.</desc>
  <g transform="translate(18 18)">
    <path
      d="M15.2 35.1c5-15.4 21.7-16.9 29.4-7.2 7.7-9.7 24.3-8.2 29.4 7.2 4.6 13.9-1.8 35.8-15.4 51.1-4.2 4.7-11 1.7-11-4.7V67.1c0-3.6-1.4-6.7-3.1-6.7-1.6 0-3.1 3.1-3.1 6.7v14.4c0 6.4-6.7 9.4-11 4.7C17 70.9 10.5 49 15.2 35.1Z"
      fill="#fbfaf7"
      stroke="#2f312f"
      stroke-width="3"
    />
    <path
      d="M21.8 39.5c4-11.2 15.9-11.1 22.8-2.8 6.9-8.4 18.8-8.5 22.8 2.8"
      fill="none"
      stroke="#d7ad22"
      stroke-width="4.8"
      stroke-linecap="round"
    />
    <path
      d="M24.7 60.5c11.9 10.4 28.2 10.4 40.1 0"
      fill="none"
      stroke="#d7ad22"
      stroke-width="5.2"
      stroke-linecap="round"
    />
  </g>
  <text x="118" y="68" fill="#1f2220" font-family="Georgia, 'Times New Roman', serif" font-size="48" font-weight="700" letter-spacing="-1.2">
    Smile
  </text>
  <text x="118" y="111" fill="#ae8611" font-family="Arial, sans-serif" font-size="28" font-weight="700" letter-spacing="2.8">
    DENTAL CARE
  </text>
  <path d="M288 88c38 22 101 20 151-9" fill="none" stroke="#d7ad22" stroke-width="4" stroke-linecap="round"/>
  <path d="M441 76c-1 10-7 16-17 18" fill="none" stroke="#d7ad22" stroke-width="4" stroke-linecap="round"/>
</svg>
