<svg xmlns="http://www.w3.org/2000/svg" viewBox="0 0 128 128" role="img" aria-labelledby="title desc">
  <title id="title">Smile Dental Care mark</title>
  <desc id="desc">A modern tooth-shaped Smile Dental Care brand mark with a gold smile accent.</desc>
  <rect width="128" height="128" rx="32" fill="#1f2220"/>
  <path
    d="M31.4 42.7c5.9-17.9 25.2-19.6 34.1-8.4 8.9-11.2 28.2-9.5 34.1 8.4 5.4 16.2-2.1 41.5-17.8 59.2-4.9 5.5-12.7 2-12.7-5.4V79.8c0-4.2-1.7-7.8-3.6-7.8s-3.6 3.6-3.6 7.8v16.7c0 7.4-7.8 10.9-12.7 5.4C33.5 84.2 26 58.9 31.4 42.7Z"
    fill="#fbfaf7"
  />
  <path
    d="M39.1 47.9c4.6-13 18.4-12.9 26.4-3.2 8-9.7 21.8-9.8 26.4 3.2"
    fill="none"
    stroke="#d7ad22"
    stroke-width="5.5"
    stroke-linecap="round"
  />
  <path
    d="M42.5 72.2c13.8 12.1 32.8 12.1 46.5 0"
    fill="none"
    stroke="#d7ad22"
    stroke-width="6"
    stroke-linecap="round"
  />
  <path
    d="M25.5 63.2c8.9-2.1 16.8-7.8 23.8-17"
    fill="none"
    stroke="#e9d99d"
    stroke-width="3.5"
    stroke-linecap="round"
    opacity=".9"
  />
</svg>
