<svg xmlns="http://www.w3.org/2000/svg" viewBox="0 0 680 240" role="img" aria-labelledby="title desc">
  <title id="title">Smile Dental Care full logo</title>
  <desc id="desc">Full Smile Dental Care logo with Dr. Bassam Ali and Associates and phone number.</desc>
  <rect width="680" height="240" rx="28" fill="#fbfaf7"/>
  <g transform="translate(54 36)">
    <path
      d="M19.8 46.5c6.3-19.2 27.2-21.1 36.7-9 9.6-12.1 30.4-10.2 36.7 9 5.8 17.4-2.3 44.7-19.2 63.7-5.3 6-13.7 2.1-13.7-5.8v-18c0-4.5-1.8-8.4-3.9-8.4s-3.9 3.9-3.9 8.4v18c0 7.9-8.4 11.8-13.7 5.8C22.1 91.2 14 63.9 19.8 46.5Z"
      fill="#fbfaf7"
      stroke="#2f312f"
      stroke-width="4"
    />
    <path
      d="M27.9 51.7c5-14 19.8-13.9 28.7-3.4 8.8-10.5 23.6-10.6 28.7 3.4"
      fill="none"
      stroke="#d7ad22"
      stroke-width="6"
      stroke-linecap="round"
    />
    <path
      d="M31.8 78.4c14.9 13 35.3 13 50.1 0"
      fill="none"
      stroke="#d7ad22"
      stroke-width="6.6"
      stroke-linecap="round"
    />
  </g>
  <text x="172" y="95" fill="#1f2220" font-family="Georgia, 'Times New Roman', serif" font-size="68" font-weight="700" letter-spacing="-1.8">
    Smile
  </text>
  <text x="174" y="146" fill="#ae8611" font-family="Arial, sans-serif" font-size="35" font-weight="700" letter-spacing="3.6">
    DENTAL CARE
  </text>
  <path d="M380 118c55 31 143 27 215-17" fill="none" stroke="#d7ad22" stroke-width="5.2" stroke-linecap="round"/>
  <path d="M597 96c-2 14-11 23-25 26" fill="none" stroke="#d7ad22" stroke-width="5.2" stroke-linecap="round"/>
  <text x="78" y="190" fill="#2f312f" font-family="Arial, sans-serif" font-size="24" font-weight="800" letter-spacing=".4">
    Dr. Bassam Ali &amp; Associates
  </text>
  <text x="410" y="190" fill="#ae8611" font-family="Arial, sans-serif" font-size="28" font-weight="900" letter-spacing=".5">
    313.438.5158
  </text>
</svg>
