<svg xmlns="http://www.w3.org/2000/svg" viewBox="0 0 64 64">
  <rect width="64" height="64" rx="16" fill="#1f2220"/>
  <path
    d="M15.7 22.5c3.2-9.8 13.7-10.7 18.6-4.6 4.9-6.1 15.4-5.2 18.6 4.6 2.9 8.9-1.1 22.7-9.7 32.4-2.7 3-6.9 1.1-6.9-2.9v-9.2c0-2.3-.9-4.3-2-4.3s-2 2-2 4.3V52c0 4-4.3 5.9-6.9 2.9-8.6-9.7-12.6-23.5-9.7-32.4Z"
    fill="#fbfaf7"
  />
  <path
    d="M20.1 25.3c2.5-6.9 9.8-6.8 14.2-1.7 4.3-5.1 11.7-5.2 14.2 1.7"
    fill="none"
    stroke="#d7ad22"
    stroke-width="3"
    stroke-linecap="round"
  />
  <path
    d="M21.9 38.8c7.4 6.5 17.6 6.5 25 0"
    fill="none"
    stroke="#d7ad22"
    stroke-width="3.2"
    stroke-linecap="round"
  />
</svg>
